<svg xmlns="http://www.w3.org/2000/svg" xmlns:xlink="http://www.w3.org/1999/xlink" viewBox="0 0 493.57 158.78"><defs><style>.cls-1{fill:url(#linear-gradient);}.cls-2{fill:#011022;}.cls-3{fill:url(#linear-gradient-2);}</style><linearGradient id="linear-gradient" x1="259.33" y1="144.03" x2="292.19" y2="144.03" gradientUnits="userSpaceOnUse"><stop offset="0.12" stop-color="aqua"/><stop offset="0.2" stop-color="#14ebff"/><stop offset="0.36" stop-color="#48b7ff"/><stop offset="0.59" stop-color="#9b64ff"/><stop offset="0.85" stop-color="#f0f"/></linearGradient><linearGradient id="linear-gradient-2" x1="131.58" y1="37.82" x2="358.28" y2="37.82" xlink:href="#linear-gradient"/></defs><title>Asset 1</title><g id="Layer_2" data-name="Layer 2"><g id="Layer_1-2" data-name="Layer 1"><path class="cls-1" d="M275.75,149.51a20.66,20.66,0,0,1-15.81-7.74,1.94,1.94,0,0,1-.2-2.58,1.81,1.81,0,0,1,2.55-.2c7.45,8.74,18.89,9.86,26.78.17a1.73,1.73,0,0,1,2.49-.17,1.86,1.86,0,0,1,0,2.78A20.66,20.66,0,0,1,275.75,149.51Z"/><path class="cls-2" d="M36.66,150.56,13.78,127.27a1.84,1.84,0,0,0-3.15,1.28v20.72a1.84,1.84,0,0,1-1.84,1.84H1.84A1.84,1.84,0,0,1,0,149.27V113.58a1.84,1.84,0,0,1,1.84-1.84h8.94a1.86,1.86,0,0,1,1.31.55L35,135.68a1.83,1.83,0,0,0,3.15-1.28V113.58A1.84,1.84,0,0,1,40,111.74h6.9a1.84,1.84,0,0,1,1.84,1.84v35.69a1.84,1.84,0,0,1-1.84,1.84H38A1.82,1.82,0,0,1,36.66,150.56Z"/><path class="cls-2" d="M104.94,147.81a1.87,1.87,0,0,1-1.3,1.77,57.26,57.26,0,0,1-8.37,1.89,68.26,68.26,0,0,1-9.87.7,43,43,0,0,1-11.48-1.39,24.33,24.33,0,0,1-8.47-4,17.35,17.35,0,0,1-5.24-6.44,19.83,19.83,0,0,1-1.81-8.63,19.08,19.08,0,0,1,1.82-8.29,19.64,19.64,0,0,1,5.16-6.65,24.58,24.58,0,0,1,8.07-4.42A33.18,33.18,0,0,1,84,110.73a31.82,31.82,0,0,1,9.82,1.45,21.35,21.35,0,0,1,7.65,4.29,19.31,19.31,0,0,1,5,7,24.42,24.42,0,0,1,1.76,9.57v.8a1.85,1.85,0,0,1-1.84,1.84H72.23a1.85,1.85,0,0,0-1.52,2.89c.12.17.24.35.37.51a9.63,9.63,0,0,0,3.23,2.64,18.06,18.06,0,0,0,5,1.69,35.38,35.38,0,0,0,7.09.61,46.88,46.88,0,0,0,5.73-.36,49.18,49.18,0,0,0,5.24-1,41.86,41.86,0,0,0,4.4-1.3l.68-.26a1.83,1.83,0,0,1,2.49,1.72Zm-9.7-19.94a1.85,1.85,0,0,0,1.7-2.55l-.21-.47A8,8,0,0,0,94.42,122,12.51,12.51,0,0,0,90.3,120a21,21,0,0,0-6.36-.82,19.38,19.38,0,0,0-6.2.89,15.81,15.81,0,0,0-4.37,2.21,11.15,11.15,0,0,0-2.73,2.83l0,0a1.83,1.83,0,0,0,1.58,2.78Z"/><path class="cls-2" d="M156.25,112.94l8,21.63a1.84,1.84,0,0,0,3.43.05l8.65-21.72a1.85,1.85,0,0,1,1.71-1.16h7.07a1.83,1.83,0,0,1,1.7,2.52L172.43,150a1.85,1.85,0,0,1-1.71,1.15h-9.3a1.84,1.84,0,0,1-1.72-1.17l-8.11-20.89a1.84,1.84,0,0,0-3.43,0l-8.09,20.89a1.86,1.86,0,0,1-1.72,1.17h-9.3a1.84,1.84,0,0,1-1.71-1.15L113,114.26a1.83,1.83,0,0,1,1.7-2.52h7.1a1.83,1.83,0,0,1,1.7,1.16l8.46,21.24a1.84,1.84,0,0,0,3.43,0l8.15-21.2a1.83,1.83,0,0,1,1.71-1.18h9.29A1.85,1.85,0,0,1,156.25,112.94Z"/><path class="cls-2" d="M239.45,140.25a11.86,11.86,0,0,1-.6,4,8.69,8.69,0,0,1-1.68,2.91,8.46,8.46,0,0,1-2.58,2,15,15,0,0,1-3.32,1.2,25.58,25.58,0,0,1-3.88.62c-1.38.11-2.8.17-4.27.17H196.38a1.83,1.83,0,0,1-1.83-1.84V113.58a1.83,1.83,0,0,1,1.83-1.84H222.6c1.13,0,2.26.05,3.4.14a20.8,20.8,0,0,1,3.25.53,13.38,13.38,0,0,1,2.88,1.08,8,8,0,0,1,2.32,1.8A8.25,8.25,0,0,1,236,118a11.3,11.3,0,0,1,.56,3.73,9.12,9.12,0,0,1-1.9,6.09,9.73,9.73,0,0,1-6,3,20.77,20.77,0,0,1,4.92.88A9.35,9.35,0,0,1,237,133.5a6.9,6.9,0,0,1,1.89,2.84A11.6,11.6,0,0,1,239.45,140.25ZM226.18,123.4A4.45,4.45,0,0,0,226,122a2.72,2.72,0,0,0-.83-1.19,4.52,4.52,0,0,0-1.63-.83,9.27,9.27,0,0,0-2.64-.31H207a1.84,1.84,0,0,0-1.84,1.84v3.71A1.84,1.84,0,0,0,207,127h13.83a10.15,10.15,0,0,0,2.64-.29,4.34,4.34,0,0,0,1.63-.77,2.48,2.48,0,0,0,.83-1.16A4.45,4.45,0,0,0,226.18,123.4ZM228.65,139a4.51,4.51,0,0,0-.46-2.17,3,3,0,0,0-1.44-1.26,7.94,7.94,0,0,0-2.52-.58q-1.54-.15-3.69-.15H207a1.84,1.84,0,0,0-1.84,1.84v4.67A1.83,1.83,0,0,0,207,143.2h13.52c1.43,0,2.66,0,3.69-.14a7.9,7.9,0,0,0,2.52-.6,3.08,3.08,0,0,0,1.44-1.28A4.44,4.44,0,0,0,228.65,139Z"/><path class="cls-2" d="M486.62,117.11v2.4h-.51v-5.62h2.8a5.74,5.74,0,0,1,1.1.1,2.15,2.15,0,0,1,.75.31,1.22,1.22,0,0,1,.43.5,1.73,1.73,0,0,1,.13.71,1.5,1.5,0,0,1-.33,1,1.83,1.83,0,0,1-1.07.51l1.92,2.48h-.64l-1.81-2.42h-2.77Zm4.18-1.6a1.08,1.08,0,0,0-.13-.58.8.8,0,0,0-.41-.35,2.6,2.6,0,0,0-.75-.17c-.31,0-.69,0-1.14,0h-1.75v2.26h1.73c.45,0,.83,0,1.14,0a2.71,2.71,0,0,0,.76-.16.85.85,0,0,0,.42-.34A1.21,1.21,0,0,0,490.8,115.51Z"/><path class="cls-2" d="M488.53,121.82a5,5,0,1,1,5-5A5,5,0,0,1,488.53,121.82Zm0-9.63a4.59,4.59,0,1,0,4.59,4.59A4.6,4.6,0,0,0,488.53,112.19Z"/><path class="cls-2" d="M302,139.72h0a3.91,3.91,0,0,1-4.14-3.59v-6.67a3.91,3.91,0,0,1,4.14-3.59h0a3.9,3.9,0,0,1,4.14,3.59v6.67A3.9,3.9,0,0,1,302,139.72Z"/><path class="cls-2" d="M249.11,139.9h0a3.94,3.94,0,0,1-4.18-3.63v-6.75a3.94,3.94,0,0,1,4.18-3.63h0a4,4,0,0,1,4.19,3.63v6.75A4,4,0,0,1,249.11,139.9Z"/><path class="cls-2" d="M303.25,132.71h-2.16a30.05,30.05,0,0,0-2-11.43,20.83,20.83,0,0,0-13.47-12.41,33.36,33.36,0,0,0-10.22-1.51,36.35,36.35,0,0,0-7,.66,26.36,26.36,0,0,0-6.18,2,22.9,22.9,0,0,0-5.2,3.41,19.73,19.73,0,0,0-3.95,4.84,25,25,0,0,0-2.56,6.39,32.55,32.55,0,0,0-.92,8h-2.16a34.31,34.31,0,0,1,1-8.55,27.15,27.15,0,0,1,2.79-7,21.67,21.67,0,0,1,4.38-5.36,25,25,0,0,1,5.69-3.74,28.94,28.94,0,0,1,6.7-2.2,39.13,39.13,0,0,1,7.44-.7,35.71,35.71,0,0,1,10.87,1.61,23.92,23.92,0,0,1,8.88,5,23.54,23.54,0,0,1,5.94,8.62A32.18,32.18,0,0,1,303.25,132.71Z"/><path class="cls-2" d="M275.87,157.68v-2.16a37.11,37.11,0,0,0,10.27-1.38,22.55,22.55,0,0,0,8.12-4.15,19.31,19.31,0,0,0,5.37-7.08,24.82,24.82,0,0,0,2-10.29h2.16a26.82,26.82,0,0,1-2.17,11.19,21.46,21.46,0,0,1-6,7.86,24.84,24.84,0,0,1-8.88,4.55A39.12,39.12,0,0,1,275.87,157.68Z"/><rect class="cls-2" x="271" y="154.59" width="8.68" height="4.19" rx="1.24"/><path class="cls-2" d="M323.36,111.74a1.83,1.83,0,0,1,1.83,1.84v20.34a19.62,19.62,0,0,0,.38,4,7.27,7.27,0,0,0,1.37,3.06,6.5,6.5,0,0,0,2.81,2,13.16,13.16,0,0,0,4.7.7,18.77,18.77,0,0,0,4.57-.6,32.24,32.24,0,0,0,4.74-1.6,34.37,34.37,0,0,0,7.62-4.47,1.79,1.79,0,0,0,.69-1.44v-22a1.84,1.84,0,0,1,1.84-1.84h6.93a1.84,1.84,0,0,1,1.84,1.84v35.69a1.84,1.84,0,0,1-1.84,1.84h-6.93a1.84,1.84,0,0,1-1.84-1.84v-.44a1.83,1.83,0,0,0-2.7-1.61l-1.57.81a42.22,42.22,0,0,1-4.81,2.09,38,38,0,0,1-5.42,1.52,30.11,30.11,0,0,1-6,.59,24.53,24.53,0,0,1-7.14-1,15.67,15.67,0,0,1-5.33-2.72,12,12,0,0,1-3.34-4.27,13.24,13.24,0,0,1-1.16-5.61V113.58a1.84,1.84,0,0,1,1.84-1.84Z"/><path class="cls-2" d="M414.35,151.11a1.84,1.84,0,0,1-1.84-1.84V129.05a19.59,19.59,0,0,0-.37-4,7.16,7.16,0,0,0-1.39-3.07,6.6,6.6,0,0,0-2.84-2,13.34,13.34,0,0,0-4.68-.7,19.17,19.17,0,0,0-4.57.59,32.54,32.54,0,0,0-4.75,1.56,33.6,33.6,0,0,0-4.48,2.27,29.35,29.35,0,0,0-3.12,2.14,1.81,1.81,0,0,0-.68,1.44v22a1.84,1.84,0,0,1-1.84,1.84h-7a1.84,1.84,0,0,1-1.84-1.84V113.58a1.84,1.84,0,0,1,1.84-1.84h7a1.84,1.84,0,0,1,1.84,1.84V114a1.84,1.84,0,0,0,2.7,1.62c.51-.27,1-.54,1.57-.8a43.08,43.08,0,0,1,4.82-2,37.5,37.5,0,0,1,5.41-1.49,31,31,0,0,1,6.05-.58,24.68,24.68,0,0,1,7.12,1,15.67,15.67,0,0,1,5.31,2.73,11.66,11.66,0,0,1,3.34,4.27,13.08,13.08,0,0,1,1.16,5.6v25a1.83,1.83,0,0,1-1.83,1.84Z"/><path class="cls-2" d="M483.49,131.4a24.78,24.78,0,0,1-.83,6.71,17.08,17.08,0,0,1-2.33,5.12,15.3,15.3,0,0,1-3.61,3.7,18.77,18.77,0,0,1-4.69,2.43,27.74,27.74,0,0,1-5.56,1.33,44.59,44.59,0,0,1-6.22.42H437.1a1.84,1.84,0,0,1-1.84-1.84V113.58a1.84,1.84,0,0,1,1.84-1.84h23.1a46,46,0,0,1,6.21.41,28.11,28.11,0,0,1,5.58,1.34,19,19,0,0,1,4.71,2.42,14.68,14.68,0,0,1,3.63,3.7,17.25,17.25,0,0,1,2.33,5.11A24.61,24.61,0,0,1,483.49,131.4Zm-10.71,0a14.87,14.87,0,0,0-.74-4.93,7.7,7.7,0,0,0-2.35-3.46,10.66,10.66,0,0,0-4.22-2,25.78,25.78,0,0,0-6.36-.67H447.73a1.83,1.83,0,0,0-1.83,1.83V140.7a1.83,1.83,0,0,0,1.83,1.84h11.38a25.78,25.78,0,0,0,6.36-.67,10.42,10.42,0,0,0,4.22-2.06,7.9,7.9,0,0,0,2.35-3.49A14.81,14.81,0,0,0,472.78,131.4Z"/><path class="cls-3" d="M244.84,75.63c-41.17,0-79.9-18.95-109-53.37-4.49-5.29-6-12.8-1.41-17.79S147.93-1.7,152,3.1c51.33,60.29,130.27,68,184.7,1.14,4.38-5.38,11.78-5.51,17.17-1.14,7.08,5.75,4.48,13.87,0,19.16C324.74,56.68,286,75.63,244.84,75.63Z"/></g></g></svg>