<svg id="Layer_1" data-name="Layer 1" xmlns="http://www.w3.org/2000/svg" xmlns:xlink="http://www.w3.org/1999/xlink" width="1920.32" height="898.98" viewBox="0 0 1920.32 898.98"><defs><style>.cls-1{fill:url(#linear-gradient);}.cls-2{fill:url(#linear-gradient-2);}</style><linearGradient id="linear-gradient" x1="-759" y1="579.59" x2="-518" y2="579.59" gradientUnits="userSpaceOnUse"><stop offset="0.12" stop-color="aqua"/><stop offset="0.2" stop-color="#14ebff"/><stop offset="0.36" stop-color="#48b7ff"/><stop offset="0.59" stop-color="#9b64ff"/><stop offset="0.85" stop-color="#f0f"/></linearGradient><linearGradient id="linear-gradient-2" x1="902.29" y1="-183.17" x2="1161.32" y2="-183.17" xlink:href="#linear-gradient"/></defs><title>decals</title><path class="cls-1" d="M-759,602.85c69.72,10.95,142.38-15.43,200.32-86.6,8.27-10.15,22.24-10.4,32.4-2.16,13.36,10.84,8.46,26.17,0,36.15-55,64.93-128.07,100.69-205.74,100.69a251.77,251.77,0,0,1-27-1.45Z" transform="translate(759 248.05)"/><path class="cls-2" d="M1161.32-127.63a227.7,227.7,0,0,1-64.64,9.34c-70.67,0-137.14-32.53-187.17-91.59-7.69-9.08-10.36-22-2.42-30.54,8.1-8.73,23.27-10.58,30.28-2.35C999-170.44,1083.67-142.21,1161-170.94" transform="translate(759 248.05)"/></svg>