<svg xmlns="http://www.w3.org/2000/svg" xmlns:xlink="http://www.w3.org/1999/xlink" width="1920.32" height="1084.17" viewBox="0 0 1920.32 1084.17"><defs><style>.cls-1{isolation:isolate;}.cls-2,.cls-3{fill:#011022;}.cls-2{opacity:0.5;}.cls-2,.cls-5{mix-blend-mode:multiply;}.cls-3{opacity:0.6;}.cls-4{opacity:0.4;mix-blend-mode:hard-light;fill:url(#linear-gradient);}.cls-5{opacity:0.12;}.cls-6{fill:url(#linear-gradient-2);}.cls-7{fill:url(#linear-gradient-3);}</style><linearGradient id="linear-gradient" x1="210" y1="1290" x2="1710" y2="-210" gradientUnits="userSpaceOnUse"><stop offset="0.12" stop-color="aqua"/><stop offset="0.2" stop-color="#14ebff"/><stop offset="0.36" stop-color="#48b7ff"/><stop offset="0.59" stop-color="#9b64ff"/><stop offset="0.85" stop-color="#f0f"/></linearGradient><linearGradient id="linear-gradient-2" x1="777.61" y1="825.17" x2="1367" y2="825.17" gradientUnits="userSpaceOnUse"><stop offset="0.15" stop-color="#f0f"/><stop offset="0.41" stop-color="#9b64ff"/><stop offset="0.64" stop-color="#48b7ff"/><stop offset="0.8" stop-color="#14ebff"/><stop offset="0.88" stop-color="aqua"/></linearGradient><linearGradient id="linear-gradient-3" x1="-2330.58" y1="108.48" x2="-1741.19" y2="108.48" gradientTransform="matrix(-1, 0, 0, 1, -2294.19, 0)" xlink:href="#linear-gradient-2"/></defs><title>gradient</title><g class="cls-1"><g id="Layer_1" data-name="Layer 1"><rect class="cls-2" width="1920" height="1084.17"/><rect class="cls-3" width="1920.32" height="1080"/><rect class="cls-4" width="1920" height="1080"/><g class="cls-5"><path class="cls-6" d="M1367,984.54a584.31,584.31,0,0,1-90.76,7.07c-181.26,0-351.77-83.44-480.11-235-19.73-23.29-26.56-56.35-6.19-78.32,20.76-22.4,59.68-27.16,77.66-6C1006,834.9,1190.09,910.63,1367,877.24" transform="translate(553 78)"/></g><g class="cls-5"><path class="cls-7" d="M-553,267.85a585.54,585.54,0,0,0,90.76,7.06c181.26,0,351.77-83.44,480.11-235C37.6,16.67,44.43-16.39,24.06-38.37,3.3-60.76-35.62-65.52-53.6-44.4-192,118.2-376.09,193.94-553,160.54" transform="translate(553 78)"/></g></g></g></svg>