<svg id="Layer_1" data-name="Layer 1" xmlns="http://www.w3.org/2000/svg" width="21.34" height="21.25" viewBox="0 0 21.34 21.25"><defs><style>.cls-1{fill:#fafbfd;stroke:#fafbfd;stroke-miterlimit:10;stroke-width:0.5px;}</style></defs><title>icoPassword</title><path class="cls-1" d="M360.26,483.65l-1.64-.22a1,1,0,0,1-1-1.19c0-.3,0-.62.06-.92a.75.75,0,0,0-.28-.7,5.55,5.55,0,0,1-.42-.42.19.19,0,0,0-.25,0,8,8,0,0,1-1.84.57,7.21,7.21,0,0,1-7.37-3.58,7,7,0,0,1-.85-4.56,7.16,7.16,0,0,1,5.43-5.95,7,7,0,0,1,5.31.78,7,7,0,0,1,3.45,4.94,6.59,6.59,0,0,1-.08,2.83c-.1.41-.25.8-.39,1.2a.27.27,0,0,0,.07.34l6.62,6.62a1.18,1.18,0,0,1,.35,1c-.05.58-.09,1.17-.14,1.76a1,1,0,0,1-.91.92l-1.71.15a1.21,1.21,0,0,1-1.12-.4c-.18-.21-.4-.38-.58-.59a.44.44,0,0,0-.4-.15l-1,.07a1.24,1.24,0,0,1-.73-.13,1,1,0,0,1-.51-.89C360.33,484.61,360.29,484.14,360.26,483.65Zm6,2.26c0-.06,0-.11,0-.16,0-.46.07-.92.11-1.38a.34.34,0,0,0-.11-.32q-3.28-3.27-6.55-6.56a1.58,1.58,0,0,1-.31-.42,1.3,1.3,0,0,1,0-1.17,5.86,5.86,0,0,0,.43-3,5.92,5.92,0,0,0-2.22-4,6.08,6.08,0,0,0-8.56.92,6,6,0,0,0-1.27,4.67,5.8,5.8,0,0,0,1.3,3,6,6,0,0,0,3.8,2.17,5.36,5.36,0,0,0,2.22-.08c.42-.12.82-.28,1.23-.43a1.27,1.27,0,0,1,1.44.29l.55.56a1.6,1.6,0,0,1,.48,1.34l-.06,1,.17,0,1.48.22a1.12,1.12,0,0,1,.95,1.08c0,.44.06.88.1,1.33l1.12-.06a1.41,1.41,0,0,1,1.12.4c.21.23.44.45.67.66a.37.37,0,0,0,.22.08l.63-.05Z" transform="translate(-346.39 -466.18)"/><path class="cls-1" d="M352.77,475.22a2.65,2.65,0,1,1,2.64-2.66A2.66,2.66,0,0,1,352.77,475.22Zm-1.59-2.65a1.58,1.58,0,1,0,3.16,0,1.58,1.58,0,1,0-3.16,0Z" transform="translate(-346.39 -466.18)"/></svg>