<svg id="Layer_1" data-name="Layer 1" xmlns="http://www.w3.org/2000/svg" width="15.7" height="18.02" viewBox="0 0 15.7 18.02"><defs><style>.cls-1{fill:#fafbfd;}</style></defs><title>icoUser</title><path class="cls-1" d="M354,478.86a5.84,5.84,0,0,1-2.33-4.82,5.76,5.76,0,0,1,1.94-4.26,5.84,5.84,0,0,1,8.26.34,5.68,5.68,0,0,1,1.56,4.52,5.78,5.78,0,0,1-2.32,4.19l.17.06a5.77,5.77,0,0,1,4,4.33,7.46,7.46,0,0,1,.13,1.25c0,.34,0,.68,0,1a.69.69,0,0,1-.76.77H350.53a.71.71,0,0,1-.71-.35.65.65,0,0,1-.08-.27,17.31,17.31,0,0,1,.06-2,5.6,5.6,0,0,1,2.24-3.75,5.66,5.66,0,0,1,1.81-.93Zm3.56-9.24a4.52,4.52,0,1,0,4.51,4.53A4.49,4.49,0,0,0,357.58,469.62ZM364,484.87s0,0,0,0a4.43,4.43,0,0,0-1.27-3.47,4.05,4.05,0,0,0-2.91-1.31c-1.44,0-2.89,0-4.34,0a4.46,4.46,0,0,0-4.39,4.07c0,.25,0,.51,0,.77Z" transform="translate(-349.74 -468.23)"/></svg>