<svg id="Layer_1" data-name="Layer 1" xmlns="http://www.w3.org/2000/svg" xmlns:xlink="http://www.w3.org/1999/xlink" width="268.39" height="28.98" viewBox="0 0 268.39 28.98"><defs><style>.cls-1{fill:#fafbfd;}.cls-2{fill:url(#linear-gradient);}</style><linearGradient id="linear-gradient" x1="317.6" y1="561.24" x2="335.37" y2="561.24" gradientUnits="userSpaceOnUse"><stop offset="0.12" stop-color="aqua"/><stop offset="0.2" stop-color="#14ebff"/><stop offset="0.36" stop-color="#48b7ff"/><stop offset="0.59" stop-color="#9b64ff"/><stop offset="0.85" stop-color="#f0f"/></linearGradient></defs><title>logo</title><path class="cls-1" d="M197.37,564.43,183,549.8v14.63h-5.75V543.14h6.24l14.38,14.69V543.14h5.72v21.29Z" transform="translate(-177.26 -539.6)"/><path class="cls-1" d="M234,563.37a30.09,30.09,0,0,1-5.23,1.25,37.5,37.5,0,0,1-5.34.38,23.35,23.35,0,0,1-6.2-.75,13.26,13.26,0,0,1-4.58-2.18,9.39,9.39,0,0,1-2.84-3.49,10.73,10.73,0,0,1-1-4.66,10.34,10.34,0,0,1,1-4.48,10.8,10.8,0,0,1,2.79-3.6,13.26,13.26,0,0,1,4.36-2.39,18,18,0,0,1,5.7-.86,17.11,17.11,0,0,1,5.31.79,11.46,11.46,0,0,1,4.14,2.31,10.62,10.62,0,0,1,2.68,3.78,13.29,13.29,0,0,1,.95,5.18v1.42h-21a5.53,5.53,0,0,0,.92,1.85,5.22,5.22,0,0,0,1.75,1.42,9.69,9.69,0,0,0,2.7.92,19.41,19.41,0,0,0,3.84.32,24.46,24.46,0,0,0,3.1-.19,27.07,27.07,0,0,0,2.83-.51,21.28,21.28,0,0,0,2.38-.71,9.38,9.38,0,0,0,1.71-.77Zm-4-11.51a4.75,4.75,0,0,0-.47-1.63,4.17,4.17,0,0,0-1.25-1.53,6.64,6.64,0,0,0-2.23-1.12,11.21,11.21,0,0,0-3.44-.45,10.38,10.38,0,0,0-3.34.48,8.76,8.76,0,0,0-2.37,1.2,5.91,5.91,0,0,0-1.48,1.53,5.07,5.07,0,0,0-.68,1.52Z" transform="translate(-177.26 -539.6)"/><path class="cls-1" d="M261.5,543.14l5.44,14.78,5.89-14.78h6l-8.56,21.29h-6.38l-5.56-14.32-5.55,14.32h-6.38l-8.57-21.29h6l5.76,14.47,5.57-14.47Z" transform="translate(-177.26 -539.6)"/><path class="cls-1" d="M306.73,558.55a6.38,6.38,0,0,1-.32,2.16,4.77,4.77,0,0,1-.91,1.57,4.46,4.46,0,0,1-1.39,1.07,8.48,8.48,0,0,1-1.8.65,13.37,13.37,0,0,1-2.1.33c-.74.07-1.51.1-2.31.1H282.45V543.14h15.17c.61,0,1.23,0,1.84.07a11,11,0,0,1,1.76.29,7.26,7.26,0,0,1,1.56.58,4.24,4.24,0,0,1,1.25,1,4.32,4.32,0,0,1,.84,1.45,6.1,6.1,0,0,1,.3,2,5,5,0,0,1-1,3.29,5.31,5.31,0,0,1-3.23,1.62,11.06,11.06,0,0,1,2.66.47,5.29,5.29,0,0,1,1.81,1,3.79,3.79,0,0,1,1,1.54A6.16,6.16,0,0,1,306.73,558.55Zm-7.17-9.11a2.37,2.37,0,0,0-.12-.76A1.59,1.59,0,0,0,299,548a2.64,2.64,0,0,0-.89-.45,5.05,5.05,0,0,0-1.42-.17H288.2v4h8.48a5.56,5.56,0,0,0,1.42-.15,2.64,2.64,0,0,0,.89-.42,1.53,1.53,0,0,0,.45-.63A2.43,2.43,0,0,0,299.56,549.44Zm1.33,8.45a2.31,2.31,0,0,0-.25-1.17,1.57,1.57,0,0,0-.77-.68,4.25,4.25,0,0,0-1.36-.32c-.56-.05-1.23-.08-2-.08H288.2v4.51h8.31c.77,0,1.44,0,2-.08a4.25,4.25,0,0,0,1.36-.32,1.69,1.69,0,0,0,.77-.69A2.36,2.36,0,0,0,300.89,557.89Z" transform="translate(-177.26 -539.6)"/><path class="cls-1" d="M441.89,546.28v1.3h-.28v-3h1.51a2.64,2.64,0,0,1,.6.06,1,1,0,0,1,.4.16.66.66,0,0,1,.23.27.93.93,0,0,1,.08.39.78.78,0,0,1-.18.54,1,1,0,0,1-.58.28l1,1.34h-.35l-1-1.31h-1.49Zm2.25-.86a.61.61,0,0,0-.07-.32.46.46,0,0,0-.22-.19,1.34,1.34,0,0,0-.4-.08,5.46,5.46,0,0,0-.62,0h-.94V546h.93a5.73,5.73,0,0,0,.62,0,1.42,1.42,0,0,0,.41-.08.46.46,0,0,0,.22-.19A.57.57,0,0,0,444.14,545.42Z" transform="translate(-177.26 -539.6)"/><path class="cls-1" d="M442.92,548.83a2.73,2.73,0,1,1,2.72-2.73A2.73,2.73,0,0,1,442.92,548.83Zm0-5.21a2.49,2.49,0,1,0,2.48,2.48A2.49,2.49,0,0,0,442.92,543.62Z" transform="translate(-177.26 -539.6)"/><path class="cls-1" d="M340.57,558.27h0a2.11,2.11,0,0,1-2.23-1.94v-3.61a2.1,2.1,0,0,1,2.23-1.94h0a2.11,2.11,0,0,1,2.24,1.94v3.61A2.12,2.12,0,0,1,340.57,558.27Z" transform="translate(-177.26 -539.6)"/><path class="cls-1" d="M312,558.36h0a2.13,2.13,0,0,1-2.26-2v-3.65a2.13,2.13,0,0,1,2.26-2h0a2.13,2.13,0,0,1,2.26,2v3.65A2.13,2.13,0,0,1,312,558.36Z" transform="translate(-177.26 -539.6)"/><path class="cls-1" d="M341.23,554.48h-1.16A16,16,0,0,0,339,548.3a11.53,11.53,0,0,0-2.91-4.25,12,12,0,0,0-4.37-2.47,18.25,18.25,0,0,0-5.53-.81,19.42,19.42,0,0,0-3.79.36,14.47,14.47,0,0,0-3.35,1.1,11.69,11.69,0,0,0-2.8,1.84,10.71,10.71,0,0,0-2.14,2.61,13.59,13.59,0,0,0-1.38,3.46,17.6,17.6,0,0,0-.5,4.34h-1.17a18.94,18.94,0,0,1,.53-4.63,15.08,15.08,0,0,1,1.51-3.76,11.79,11.79,0,0,1,2.37-2.9,13.89,13.89,0,0,1,3.08-2,15.53,15.53,0,0,1,3.62-1.19,21,21,0,0,1,4-.38,19.26,19.26,0,0,1,5.88.87,13,13,0,0,1,4.81,2.72,12.74,12.74,0,0,1,3.2,4.66A17.35,17.35,0,0,1,341.23,554.48Z" transform="translate(-177.26 -539.6)"/><path class="cls-1" d="M326.43,568v-1.17a20.13,20.13,0,0,0,5.55-.74,12.26,12.26,0,0,0,4.39-2.25,10.44,10.44,0,0,0,2.9-3.83,13.29,13.29,0,0,0,1.07-5.56h1.17a14.64,14.64,0,0,1-1.17,6.05,11.67,11.67,0,0,1-3.23,4.25,13.45,13.45,0,0,1-4.81,2.46A21.25,21.25,0,0,1,326.43,568Z" transform="translate(-177.26 -539.6)"/><rect class="cls-1" x="146.53" y="26.71" width="4.69" height="2.27" rx="0.65"/><path class="cls-1" d="M353.1,543.14v12a11,11,0,0,0,.2,2.16A3.88,3.88,0,0,0,354,559a3.52,3.52,0,0,0,1.52,1.07,7.19,7.19,0,0,0,2.54.38,10.08,10.08,0,0,0,2.48-.33,16.75,16.75,0,0,0,2.56-.86,19.85,19.85,0,0,0,2.43-1.25,17.84,17.84,0,0,0,2.06-1.47V543.14h5.74v21.29h-5.74v-2.92c-.72.42-1.49.83-2.31,1.25a21.21,21.21,0,0,1-2.6,1.13,19.61,19.61,0,0,1-2.93.82,16.34,16.34,0,0,1-3.27.32,13,13,0,0,1-3.85-.52,8.46,8.46,0,0,1-2.89-1.47,6.44,6.44,0,0,1-1.8-2.31,7.08,7.08,0,0,1-.63-3V543.14Z" transform="translate(-177.26 -539.6)"/><path class="cls-1" d="M400.31,564.43V552.5a10.34,10.34,0,0,0-.2-2.17,3.79,3.79,0,0,0-.75-1.65,3.55,3.55,0,0,0-1.53-1.07,7,7,0,0,0-2.54-.38,10.44,10.44,0,0,0-2.47.31,18.73,18.73,0,0,0-2.56.85,18.39,18.39,0,0,0-2.43,1.22,16.1,16.1,0,0,0-2.05,1.46v13.36H380V543.14h5.75v2.91q1.08-.62,2.31-1.23a22.83,22.83,0,0,1,2.6-1.11,21.27,21.27,0,0,1,2.93-.81,17.12,17.12,0,0,1,3.27-.31,13.38,13.38,0,0,1,3.85.52,8.38,8.38,0,0,1,2.87,1.48,6.32,6.32,0,0,1,1.81,2.3,7.14,7.14,0,0,1,.63,3v14.51Z" transform="translate(-177.26 -539.6)"/><path class="cls-1" d="M438.69,553.77a13.35,13.35,0,0,1-.45,3.63,9.15,9.15,0,0,1-1.26,2.77,8,8,0,0,1-2,2,10,10,0,0,1-2.53,1.32,15.41,15.41,0,0,1-3,.72,24.29,24.29,0,0,1-3.36.23H412.62V543.14H426.1a24.42,24.42,0,0,1,3.36.22,15.41,15.41,0,0,1,3,.72,10.23,10.23,0,0,1,2.55,1.31,7.77,7.77,0,0,1,2,2,9.15,9.15,0,0,1,1.26,2.77A13.15,13.15,0,0,1,438.69,553.77Zm-5.79,0a7.94,7.94,0,0,0-.4-2.67,4.14,4.14,0,0,0-1.27-1.87,5.78,5.78,0,0,0-2.28-1.1,14.13,14.13,0,0,0-3.44-.36h-7.15v12h7.15a14.13,14.13,0,0,0,3.44-.36,5.54,5.54,0,0,0,2.28-1.12,4.17,4.17,0,0,0,1.27-1.88A7.88,7.88,0,0,0,432.9,553.77Z" transform="translate(-177.26 -539.6)"/><path class="cls-2" d="M326.48,564.2a11.19,11.19,0,0,1-8.55-4.18,1.06,1.06,0,0,1-.11-1.4,1,1,0,0,1,1.38-.1c4,4.72,10.21,5.33,14.48.08a.93.93,0,0,1,1.35-.08,1,1,0,0,1,0,1.5A11.19,11.19,0,0,1,326.48,564.2Z" transform="translate(-177.26 -539.6)"/></svg>