<svg id="Layer_1" data-name="Layer 1" xmlns="http://www.w3.org/2000/svg" width="51.64" height="462.51" viewBox="0 0 51.64 462.51"><defs><style>.cls-1{fill:none;stroke:#fafbfd;stroke-miterlimit:10;}.cls-2{fill:#fafbfd;}</style></defs><title>slogan</title><line class="cls-1" x1="26.06" y1="27.31" x2="26.06"/><line class="cls-1" x1="26.06" y1="462.51" x2="26.06" y2="435.19"/><path class="cls-2" d="M259.05,492.94a5.82,5.82,0,0,1,2.11,1.89,9.51,9.51,0,0,1,1.36,3.15,20.41,20.41,0,0,1,0,8.8,9.66,9.66,0,0,1-1.36,3.16,5.65,5.65,0,0,1-4.83,2.52H242.64v-1.81h13.84a3.7,3.7,0,0,0,1.89-.53,4.72,4.72,0,0,0,1.56-1.58A8.7,8.7,0,0,0,261,506a16.09,16.09,0,0,0,0-7.13,8.7,8.7,0,0,0-1.06-2.59,4.68,4.68,0,0,0-1.56-1.57,3.61,3.61,0,0,0-1.89-.53H242.64v-1.82h13.69A5.83,5.83,0,0,1,259.05,492.94Z" transform="translate(-242.28 -151.9)"/><path class="cls-2" d="M262.61,466.6,245,484h17.59v1.82h-20v-2l17.64-17.35H242.64v-1.78h20Z" transform="translate(-242.28 -151.9)"/><path class="cls-2" d="M262.61,439.63l-5.28,2.74v13.56l5.28,2.75v2l-20-10.45v-2.14l20-10.45Zm-18.21,9.51,11.28,5.9V443.26Z" transform="translate(-242.28 -151.9)"/><path class="cls-2" d="M245.59,406.4c-.18.38-.38.81-.59,1.31a12.87,12.87,0,0,0-.56,1.69,20.15,20.15,0,0,0-.41,2.15,19.35,19.35,0,0,0-.17,2.65,22.46,22.46,0,0,0,.2,3.13,8.89,8.89,0,0,0,.64,2.33,3.59,3.59,0,0,0,1.08,1.45,2.44,2.44,0,0,0,1.55.5,2,2,0,0,0,1.33-.47,4.32,4.32,0,0,0,1-1.28,12.09,12.09,0,0,0,.79-1.89c.24-.72.46-1.49.67-2.3s.42-1.64.63-2.5.44-1.69.69-2.5.53-1.58.83-2.3a9,9,0,0,1,1.07-1.89,5.08,5.08,0,0,1,1.39-1.28,3.52,3.52,0,0,1,1.82-.47,4.25,4.25,0,0,1,1.95.42,4.44,4.44,0,0,1,1.44,1.14,6.26,6.26,0,0,1,1,1.69,12.7,12.7,0,0,1,.63,2.06,18.24,18.24,0,0,1,.32,2.27c.07.78.1,1.54.1,2.3a26.33,26.33,0,0,1-1.41,8.75h-2.22a13.18,13.18,0,0,0,1.61-4.18,23.85,23.85,0,0,0,.44-4.63,22.29,22.29,0,0,0-.21-3.17,9.87,9.87,0,0,0-.65-2.51,4,4,0,0,0-1.15-1.65,2.66,2.66,0,0,0-1.74-.59,2.38,2.38,0,0,0-1.46.47,4.47,4.47,0,0,0-1.09,1.28,9.76,9.76,0,0,0-.84,1.89c-.24.72-.47,1.49-.68,2.29s-.41,1.64-.61,2.49-.41,1.69-.64,2.49a22.73,22.73,0,0,1-.79,2.29,8.42,8.42,0,0,1-1,1.89,4.7,4.7,0,0,1-1.36,1.28,3.3,3.3,0,0,1-1.79.47,4,4,0,0,1-1.78-.37,4.25,4.25,0,0,1-1.34-1,5.85,5.85,0,0,1-1-1.55,10.06,10.06,0,0,1-.61-1.9,17.06,17.06,0,0,1-.33-2.1c-.07-.72-.1-1.44-.1-2.15a22,22,0,0,1,.1-2.2c.07-.69.16-1.36.27-2s.24-1.28.38-1.89.3-1.24.47-1.87Z" transform="translate(-242.28 -151.9)"/><path class="cls-2" d="M252.64,375.16a10.28,10.28,0,0,1,4.64,1,9,9,0,0,1,3.23,2.67,11.79,11.79,0,0,1,1.88,4,19.31,19.31,0,0,1,.61,5,19.54,19.54,0,0,1-.61,5,11.85,11.85,0,0,1-1.88,4,9,9,0,0,1-3.23,2.69,10.28,10.28,0,0,1-4.64,1,11,11,0,0,1-3.25-.45,9.49,9.49,0,0,1-2.62-1.26,8.65,8.65,0,0,1-2-2,12,12,0,0,1-1.41-2.57,15.24,15.24,0,0,1-.82-3,21,21,0,0,1-.27-3.42,19.31,19.31,0,0,1,.61-5,11.43,11.43,0,0,1,1.88-4,9,9,0,0,1,3.23-2.67A10.28,10.28,0,0,1,252.64,375.16Zm0,1.86a9.5,9.5,0,0,0-3.75.69,7,7,0,0,0-2.74,2,9.28,9.28,0,0,0-1.69,3.37,17.2,17.2,0,0,0-.57,4.67,17,17,0,0,0,.58,4.69,9.51,9.51,0,0,0,1.69,3.4,7.08,7.08,0,0,0,2.75,2.06,10.34,10.34,0,0,0,7.48,0,7.05,7.05,0,0,0,2.74-2.06,9.34,9.34,0,0,0,1.68-3.4,19.17,19.17,0,0,0,0-9.36,9.12,9.12,0,0,0-1.68-3.37,7.1,7.1,0,0,0-2.74-2A9.57,9.57,0,0,0,252.64,377Z" transform="translate(-242.28 -151.9)"/><path class="cls-2" d="M262.61,350.66,245,368h17.59v1.81h-20v-2l17.64-17.35H242.64v-1.79h20Z" transform="translate(-242.28 -151.9)"/><path class="cls-2" d="M254.06,340.15h8.55V342h-20V332a18.34,18.34,0,0,1,.36-3.91,7.35,7.35,0,0,1,1.07-2.67,4.31,4.31,0,0,1,1.8-1.52,6.08,6.08,0,0,1,2.51-.48,5.25,5.25,0,0,1,3.58,1.18,6.48,6.48,0,0,1,1.84,3.79l8.81-6.81v2.28L254,330.33c0,.27,0,.55.05.83s0,.57,0,.87Zm-5.68-14.84a4.07,4.07,0,0,0-2.07.46,3,3,0,0,0-1.23,1.46,9.31,9.31,0,0,0-.59,2.67q-.15,1.65-.15,4.05v6.2h8V334c0-1.6,0-2.95-.14-4.06a9.3,9.3,0,0,0-.56-2.69,3.05,3.05,0,0,0-1.21-1.49A4.12,4.12,0,0,0,248.38,325.31Z" transform="translate(-242.28 -151.9)"/><path class="cls-2" d="M262.61,317.18h-20v-1.82h20Z" transform="translate(-242.28 -151.9)"/><path class="cls-2" d="M245.59,292.5c-.18.38-.38.82-.59,1.31a13,13,0,0,0-.56,1.7,19.94,19.94,0,0,0-.41,2.14,19.46,19.46,0,0,0-.17,2.65,22.36,22.36,0,0,0,.2,3.13,8.78,8.78,0,0,0,.64,2.33,3.63,3.63,0,0,0,1.08,1.46,2.5,2.5,0,0,0,1.55.5,2,2,0,0,0,1.33-.48,4.32,4.32,0,0,0,1-1.28,11.33,11.33,0,0,0,.79-1.89c.24-.72.46-1.48.67-2.29s.42-1.65.63-2.51.44-1.69.69-2.5.53-1.57.83-2.29a8.81,8.81,0,0,1,1.07-1.9,5.24,5.24,0,0,1,1.39-1.28,3.52,3.52,0,0,1,1.82-.47,4.25,4.25,0,0,1,1.95.42,4.44,4.44,0,0,1,1.44,1.14,6.42,6.42,0,0,1,1,1.69,12.7,12.7,0,0,1,.63,2.06,18.24,18.24,0,0,1,.32,2.27c.07.78.1,1.55.1,2.3a27.1,27.1,0,0,1-.38,4.72,26.7,26.7,0,0,1-1,4h-2.22a13.18,13.18,0,0,0,1.61-4.18,23.78,23.78,0,0,0,.44-4.63,22.14,22.14,0,0,0-.21-3.16,9.84,9.84,0,0,0-.65-2.52,4.17,4.17,0,0,0-1.15-1.65,2.65,2.65,0,0,0-1.74-.58,2.32,2.32,0,0,0-1.46.47,4.22,4.22,0,0,0-1.09,1.28,9.24,9.24,0,0,0-.84,1.89c-.24.72-.47,1.48-.68,2.28s-.41,1.64-.61,2.5-.41,1.68-.64,2.49a23.63,23.63,0,0,1-.79,2.29,8.88,8.88,0,0,1-1,1.89,4.8,4.8,0,0,1-1.36,1.27,3.3,3.3,0,0,1-1.79.48,4,4,0,0,1-1.78-.38,4.11,4.11,0,0,1-1.34-1,5.85,5.85,0,0,1-1-1.55,10.19,10.19,0,0,1-.61-1.89,17.69,17.69,0,0,1-.33-2.1c-.07-.73-.1-1.45-.1-2.15s0-1.51.1-2.21.16-1.36.27-2,.24-1.27.38-1.89.3-1.24.47-1.87Z" transform="translate(-242.28 -151.9)"/><path class="cls-2" d="M262.61,266.92l-5.28,2.75v13.55l5.28,2.75v2l-20-10.45v-2.13l20-10.45Zm-18.21,9.52,11.28,5.9V270.55Z" transform="translate(-242.28 -151.9)"/><path class="cls-2" d="M275.22,533h18.31v1.8H275.22v9.08h-1.66v-20h1.66Z" transform="translate(-242.28 -151.9)"/><path class="cls-2" d="M283.56,496.59a10.28,10.28,0,0,1,4.64,1,9,9,0,0,1,3.23,2.67,11.6,11.6,0,0,1,1.88,4,19.31,19.31,0,0,1,.61,5,19.54,19.54,0,0,1-.61,5,11.67,11.67,0,0,1-1.88,4A8.9,8.9,0,0,1,288.2,521a10.28,10.28,0,0,1-4.64,1,11.05,11.05,0,0,1-3.25-.45,9.29,9.29,0,0,1-2.61-1.26,8.7,8.7,0,0,1-2-2,11.55,11.55,0,0,1-1.4-2.57,14.61,14.61,0,0,1-.83-3,21,21,0,0,1-.27-3.42,19.31,19.31,0,0,1,.61-5,11.79,11.79,0,0,1,1.88-4,9,9,0,0,1,3.23-2.67A10.28,10.28,0,0,1,283.56,496.59Zm0,1.86a9.57,9.57,0,0,0-3.75.69,7.1,7.1,0,0,0-2.74,2,9.19,9.19,0,0,0-1.68,3.37,19,19,0,0,0,0,9.36,9.35,9.35,0,0,0,1.69,3.4,7,7,0,0,0,2.74,2.06,10.34,10.34,0,0,0,7.48,0,7,7,0,0,0,2.74-2.06,9.34,9.34,0,0,0,1.68-3.4,19.17,19.17,0,0,0,0-9.36,9.19,9.19,0,0,0-1.68-3.37,7,7,0,0,0-2.74-2A9.5,9.5,0,0,0,283.56,498.45Z" transform="translate(-242.28 -151.9)"/><path class="cls-2" d="M283.53,469.46a13,13,0,0,1,3.41.4,8.74,8.74,0,0,1,2.59,1.12,7.38,7.38,0,0,1,1.88,1.77,9.11,9.11,0,0,1,1.23,2.31,13.59,13.59,0,0,1,.68,2.76,22.43,22.43,0,0,1,.21,3.13v10.3h-20V481a20.45,20.45,0,0,1,.48-4.56,9.64,9.64,0,0,1,1.64-3.66,7.73,7.73,0,0,1,3.07-2.42A11.4,11.4,0,0,1,283.53,469.46Zm0,1.86a11.32,11.32,0,0,0-2.88.32,7.39,7.39,0,0,0-2.17.91,5.69,5.69,0,0,0-1.55,1.46,7.38,7.38,0,0,0-1,1.93,11.13,11.13,0,0,0-.55,2.34,20.92,20.92,0,0,0-.16,2.69v8.47h16.65V481a19,19,0,0,0-.38-3.91,7.81,7.81,0,0,0-1.34-3,6.33,6.33,0,0,0-2.56-2A10.1,10.1,0,0,0,283.54,471.32Z" transform="translate(-242.28 -151.9)"/><path class="cls-2" d="M283.56,440.22a10.28,10.28,0,0,1,4.64,1,8.88,8.88,0,0,1,3.23,2.68,11.52,11.52,0,0,1,1.88,4,19.2,19.2,0,0,1,.61,5,19.54,19.54,0,0,1-.61,5,11.62,11.62,0,0,1-1.88,4,8.81,8.81,0,0,1-3.23,2.69,10.28,10.28,0,0,1-4.64,1,11.05,11.05,0,0,1-3.25-.45,9.29,9.29,0,0,1-2.61-1.26,8.5,8.5,0,0,1-2-2,11.33,11.33,0,0,1-1.4-2.57,14.44,14.44,0,0,1-.83-3,20.85,20.85,0,0,1-.27-3.41,19.2,19.2,0,0,1,.61-5,11.7,11.7,0,0,1,1.88-4,9,9,0,0,1,3.23-2.68A10.28,10.28,0,0,1,283.56,440.22Zm0,1.86a9.57,9.57,0,0,0-3.75.69,7.1,7.1,0,0,0-2.74,2,9.27,9.27,0,0,0-1.68,3.37,19,19,0,0,0,0,9.36,9.27,9.27,0,0,0,1.69,3.4,7.1,7.1,0,0,0,2.74,2.07,10.48,10.48,0,0,0,7.48,0,7.1,7.1,0,0,0,2.74-2.07,9.26,9.26,0,0,0,1.68-3.4,19.17,19.17,0,0,0,0-9.36,9.27,9.27,0,0,0-1.68-3.37,7,7,0,0,0-2.74-2A9.5,9.5,0,0,0,283.56,442.08Z" transform="translate(-242.28 -151.9)"/><path class="cls-2" d="M276.51,418.76c-.18.38-.38.81-.58,1.31a11.54,11.54,0,0,0-.56,1.69,17.83,17.83,0,0,0-.42,2.15,19.2,19.2,0,0,0-.17,2.64,21,21,0,0,0,.21,3.14,8.53,8.53,0,0,0,.63,2.33,3.78,3.78,0,0,0,1.08,1.45,2.53,2.53,0,0,0,1.56.5,2,2,0,0,0,1.32-.47,4.29,4.29,0,0,0,1-1.28,11.2,11.2,0,0,0,.79-1.89c.24-.72.46-1.49.67-2.3s.42-1.64.64-2.5.44-1.69.68-2.5.53-1.58.83-2.3a9,9,0,0,1,1.07-1.89,5,5,0,0,1,1.4-1.28,3.37,3.37,0,0,1,1.81-.47,4.32,4.32,0,0,1,2,.42,4.66,4.66,0,0,1,1.44,1.14,6.61,6.61,0,0,1,1,1.68,11.32,11.32,0,0,1,.63,2.07,18,18,0,0,1,.33,2.27c.06.78.09,1.54.09,2.3a26.12,26.12,0,0,1-.38,4.71,26.83,26.83,0,0,1-1,4h-2.22a13.18,13.18,0,0,0,1.61-4.18,24.84,24.84,0,0,0,.24-7.8,10.65,10.65,0,0,0-.65-2.51,4.14,4.14,0,0,0-1.16-1.65,2.64,2.64,0,0,0-1.74-.59,2.35,2.35,0,0,0-1.45.47,4.22,4.22,0,0,0-1.1,1.28,10.4,10.4,0,0,0-.84,1.89c-.24.72-.46,1.49-.67,2.29s-.41,1.63-.61,2.49-.42,1.69-.65,2.49a22.74,22.74,0,0,1-.78,2.29,8.9,8.9,0,0,1-1,1.89,4.71,4.71,0,0,1-1.36,1.28,3.29,3.29,0,0,1-1.78.47,4,4,0,0,1-1.78-.37,4.29,4.29,0,0,1-1.35-1,6.31,6.31,0,0,1-.95-1.55,10.3,10.3,0,0,1-.61-1.9,17.06,17.06,0,0,1-.33-2.1c-.07-.72-.1-1.44-.1-2.15a22,22,0,0,1,.1-2.2q.1-1,.27-2c.11-.64.24-1.27.39-1.88s.3-1.24.46-1.87Z" transform="translate(-242.28 -151.9)"/><path class="cls-2" d="M293.53,400.27h-20v-1.81h18.27V383.87h1.7Z" transform="translate(-242.28 -151.9)"/><path class="cls-2" d="M283.56,355.46a10.28,10.28,0,0,1,4.64,1,9,9,0,0,1,3.23,2.67,11.6,11.6,0,0,1,1.88,4,20.76,20.76,0,0,1,0,10,11.67,11.67,0,0,1-1.88,4,8.9,8.9,0,0,1-3.23,2.69,10.28,10.28,0,0,1-4.64,1,11.05,11.05,0,0,1-3.25-.45,9.29,9.29,0,0,1-2.61-1.26,8.5,8.5,0,0,1-2-2,11.55,11.55,0,0,1-1.4-2.57,14.44,14.44,0,0,1-.83-3,20.88,20.88,0,0,1-.27-3.42,19.31,19.31,0,0,1,.61-5,11.79,11.79,0,0,1,1.88-4,9,9,0,0,1,3.23-2.67A10.28,10.28,0,0,1,283.56,355.46Zm0,1.86a9.57,9.57,0,0,0-3.75.69,7.1,7.1,0,0,0-2.74,2,9.19,9.19,0,0,0-1.68,3.37,19,19,0,0,0,0,9.36,9.27,9.27,0,0,0,1.69,3.4,7,7,0,0,0,2.74,2.06,10.34,10.34,0,0,0,7.48,0,7,7,0,0,0,2.74-2.06,9.26,9.26,0,0,0,1.68-3.4,19.17,19.17,0,0,0,0-9.36,9.19,9.19,0,0,0-1.68-3.37,7,7,0,0,0-2.74-2A9.5,9.5,0,0,0,283.56,357.32Z" transform="translate(-242.28 -151.9)"/><path class="cls-2" d="M276.51,334c-.18.37-.38.81-.58,1.31a11.15,11.15,0,0,0-.56,1.69,17.83,17.83,0,0,0-.42,2.15,19.2,19.2,0,0,0-.17,2.64,21,21,0,0,0,.21,3.14,8.46,8.46,0,0,0,.63,2.32,3.82,3.82,0,0,0,1.08,1.46,2.53,2.53,0,0,0,1.56.5,2,2,0,0,0,1.32-.47,4.29,4.29,0,0,0,1-1.28,11.2,11.2,0,0,0,.79-1.89c.24-.72.46-1.49.67-2.3s.42-1.64.64-2.5.44-1.69.68-2.5.53-1.58.83-2.3a9,9,0,0,1,1.07-1.89,4.83,4.83,0,0,1,1.4-1.28,3.37,3.37,0,0,1,1.81-.47,4.32,4.32,0,0,1,2,.42,4.66,4.66,0,0,1,1.44,1.14,6.61,6.61,0,0,1,1,1.68,11.32,11.32,0,0,1,.63,2.07,18.08,18.08,0,0,1,.33,2.26q.09,1.17.09,2.31a26.12,26.12,0,0,1-.38,4.71,26.4,26.4,0,0,1-1,4h-2.22a13.13,13.13,0,0,0,1.61-4.17,24.84,24.84,0,0,0,.24-7.8,10.52,10.52,0,0,0-.65-2.51,4.14,4.14,0,0,0-1.16-1.65,2.59,2.59,0,0,0-1.74-.59,2.35,2.35,0,0,0-1.45.47A4.22,4.22,0,0,0,286,336a10.4,10.4,0,0,0-.84,1.89c-.24.72-.46,1.48-.67,2.29s-.41,1.63-.61,2.49-.42,1.69-.65,2.49a22.74,22.74,0,0,1-.78,2.29,8.9,8.9,0,0,1-1,1.89,4.71,4.71,0,0,1-1.36,1.28,3.38,3.38,0,0,1-1.78.47,4,4,0,0,1-1.78-.38,4.15,4.15,0,0,1-1.35-1,6.06,6.06,0,0,1-.95-1.54,10.3,10.3,0,0,1-.61-1.9,17.06,17.06,0,0,1-.33-2.1c-.07-.73-.1-1.44-.1-2.15a21.84,21.84,0,0,1,.1-2.2q.1-1,.27-2t.39-1.89c.14-.61.3-1.23.46-1.86Z" transform="translate(-242.28 -151.9)"/><path class="cls-2" d="M283.53,293.72a13,13,0,0,1,3.41.4,8.74,8.74,0,0,1,2.59,1.12,7.21,7.21,0,0,1,1.88,1.77,9.11,9.11,0,0,1,1.23,2.31,13.59,13.59,0,0,1,.68,2.76,22.43,22.43,0,0,1,.21,3.13v10.3h-20V305.24a20.45,20.45,0,0,1,.48-4.56,9.57,9.57,0,0,1,1.64-3.66,7.73,7.73,0,0,1,3.07-2.42A11.4,11.4,0,0,1,283.53,293.72Zm0,1.86a11.32,11.32,0,0,0-2.88.32,7.13,7.13,0,0,0-2.17.91,5.55,5.55,0,0,0-1.55,1.46,7.22,7.22,0,0,0-1,1.93,11.13,11.13,0,0,0-.55,2.34,20.92,20.92,0,0,0-.16,2.69v8.47h16.65v-8.47a18.93,18.93,0,0,0-.38-3.91,7.93,7.93,0,0,0-1.34-3.05,6.31,6.31,0,0,0-2.56-2A9.93,9.93,0,0,0,283.54,295.58Z" transform="translate(-242.28 -151.9)"/><path class="cls-2" d="M269,282.37l2.7,6.39-1.14.57-3.09-6.22Zm24.51,6.06h-20v-1.82h20Z" transform="translate(-242.28 -151.9)"/><path class="cls-2" d="M293.53,261.59l-5.27,2.75V277.9l5.27,2.75v2l-20-10.45v-2.14l20-10.45Zm-18.21,9.52L286.6,277V265.23Z" transform="translate(-242.28 -151.9)"/><path class="cls-2" d="M276.51,239.56c-.18.38-.38.81-.58,1.31a11.54,11.54,0,0,0-.56,1.69,17.83,17.83,0,0,0-.42,2.15,19.2,19.2,0,0,0-.17,2.64,21,21,0,0,0,.21,3.14,8.64,8.64,0,0,0,.63,2.33,3.78,3.78,0,0,0,1.08,1.45,2.53,2.53,0,0,0,1.56.5,2,2,0,0,0,1.32-.47,4.29,4.29,0,0,0,1-1.28,11.2,11.2,0,0,0,.79-1.89c.24-.72.46-1.49.67-2.3s.42-1.64.64-2.5.44-1.69.68-2.5.53-1.58.83-2.3a9,9,0,0,1,1.07-1.89,4.83,4.83,0,0,1,1.4-1.28,3.37,3.37,0,0,1,1.81-.47,4.32,4.32,0,0,1,2,.42,4.66,4.66,0,0,1,1.44,1.14,6.61,6.61,0,0,1,1,1.68,11.32,11.32,0,0,1,.63,2.07,18.08,18.08,0,0,1,.33,2.26q.09,1.17.09,2.31a26.12,26.12,0,0,1-.38,4.71,26.83,26.83,0,0,1-1,4h-2.22a13.18,13.18,0,0,0,1.61-4.18,24.84,24.84,0,0,0,.24-7.8,10.52,10.52,0,0,0-.65-2.51,4.14,4.14,0,0,0-1.16-1.65,2.64,2.64,0,0,0-1.74-.59,2.35,2.35,0,0,0-1.45.47,4.22,4.22,0,0,0-1.1,1.28,10.4,10.4,0,0,0-.84,1.89c-.24.72-.46,1.48-.67,2.29s-.41,1.63-.61,2.49-.42,1.69-.65,2.49a22.74,22.74,0,0,1-.78,2.29,8.9,8.9,0,0,1-1,1.89,4.71,4.71,0,0,1-1.36,1.28,3.38,3.38,0,0,1-1.78.47,3.89,3.89,0,0,1-1.78-.38,4,4,0,0,1-1.35-1,6.06,6.06,0,0,1-.95-1.54,10.3,10.3,0,0,1-.61-1.9,17.06,17.06,0,0,1-.33-2.1c-.07-.73-.1-1.44-.1-2.15a22,22,0,0,1,.1-2.2q.1-1,.27-2t.39-1.89c.14-.61.3-1.23.46-1.86Z" transform="translate(-242.28 -151.9)"/></svg>