<svg xmlns="http://www.w3.org/2000/svg" width="20" height="20" viewBox="0 0 20 20">
  <path id="Icon_awesome-plus-circle" data-name="Icon awesome-plus-circle" d="M10.563.563a10,10,0,1,0,10,10A10,10,0,0,0,10.563.563Zm5.806,11.129a.485.485,0,0,1-.484.484h-3.71v3.71a.485.485,0,0,1-.484.484H9.433a.485.485,0,0,1-.484-.484v-3.71H5.24a.485.485,0,0,1-.484-.484V9.433A.485.485,0,0,1,5.24,8.95H8.95V5.24a.485.485,0,0,1,.484-.484h2.258a.485.485,0,0,1,.484.484V8.95h3.71a.485.485,0,0,1,.484.484Z" transform="translate(-0.563 -0.563)" fill="#2f353a"/>
</svg>
