<svg xmlns="http://www.w3.org/2000/svg" xmlns:xlink="http://www.w3.org/1999/xlink" width="60" height="60" viewBox="0 0 60 60"><defs><linearGradient id="a" x1="0.5" x2="0.5" y2="1" gradientUnits="objectBoundingBox"><stop offset="0" stop-color="aqua"/><stop offset="1" stop-color="#ff5fff"/></linearGradient></defs><g transform="translate(-278 -147)"><g transform="translate(-19 -40)"><circle cx="30" cy="30" r="30" transform="translate(297 187)" fill="url(#a)"/></g><g transform="translate(296 165)"><g transform="translate(0)"><path d="M24,3V9.913h6.913" transform="translate(-7.999 -1.848)" fill="none" stroke="#fff" stroke-linecap="round" stroke-linejoin="round" stroke-width="3"/><path d="M32.065,1.5,24,9.565" transform="translate(-7.999 -1.5)" fill="none" stroke="#fff" stroke-linecap="round" stroke-linejoin="round" stroke-width="3"/><path d="M26.082,20.19v3.457a2.3,2.3,0,0,1-2.512,2.3,22.8,22.8,0,0,1-9.943-3.537A22.467,22.467,0,0,1,6.714,15.5,22.8,22.8,0,0,1,3.177,5.512,2.3,2.3,0,0,1,5.47,3H8.926a2.3,2.3,0,0,1,2.3,1.982,14.794,14.794,0,0,0,.807,3.238,2.3,2.3,0,0,1-.518,2.431l-1.463,1.463a18.435,18.435,0,0,0,6.913,6.913l1.463-1.463a2.3,2.3,0,0,1,2.431-.518,14.794,14.794,0,0,0,3.238.807,2.3,2.3,0,0,1,1.982,2.339Z" transform="translate(-3.168 -1.848)" fill="none" stroke="#fff" stroke-linecap="round" stroke-linejoin="round" stroke-width="3"/></g></g></g></svg>