<svg xmlns="http://www.w3.org/2000/svg" width="14.289" height="20" viewBox="0 0 14.289 20">
  <path id="Icon_ionic-md-keypad" data-name="Icon ionic-md-keypad" d="M13.894,18.615A1.817,1.817,0,1,0,15.7,20.433,1.817,1.817,0,0,0,13.894,18.615ZM8.558,2.25a1.817,1.817,0,1,0,1.808,1.817A1.817,1.817,0,0,0,8.558,2.25Zm0,5.457a1.817,1.817,0,1,0,1.808,1.817A1.817,1.817,0,0,0,8.558,7.707Zm0,5.457a1.817,1.817,0,1,0,1.808,1.817A1.817,1.817,0,0,0,8.558,13.163ZM19.23,5.889a1.82,1.82,0,1,0-1.808-1.822A1.817,1.817,0,0,0,19.23,5.889Zm-5.336,7.274A1.817,1.817,0,1,0,15.7,14.981,1.817,1.817,0,0,0,13.894,13.163Zm5.336,0a1.817,1.817,0,1,0,1.808,1.817A1.817,1.817,0,0,0,19.23,13.163Zm0-5.457a1.817,1.817,0,1,0,1.808,1.817A1.817,1.817,0,0,0,19.23,7.707Zm-5.336,0A1.817,1.817,0,1,0,15.7,9.524,1.817,1.817,0,0,0,13.894,7.707Zm0-5.457A1.817,1.817,0,1,0,15.7,4.067,1.817,1.817,0,0,0,13.894,2.25Z" transform="translate(-6.75 -2.25)" fill="#2f353a"/>
</svg>
