<svg xmlns="http://www.w3.org/2000/svg" width="25" height="20" viewBox="0 0 25 20">
  <path id="Icon_awesome-microphone-slash" data-name="Icon awesome-microphone-slash" d="M24.758,17.894,18.594,13.13a6.712,6.712,0,0,0,.78-3.13V8.125A.625.625,0,0,0,18.75,7.5h-.625a.625.625,0,0,0-.625.625V10a4.858,4.858,0,0,1-.419,1.961l-1.037-.8A3.677,3.677,0,0,0,16.25,10V3.75a3.75,3.75,0,0,0-7.5,0V5.522L1.776.132A.625.625,0,0,0,.9.241l-.767.987a.625.625,0,0,0,.11.877L23.224,19.868a.625.625,0,0,0,.877-.11l.767-.987a.625.625,0,0,0-.11-.877Zm-9.134.23H13.437V16.806a6.8,6.8,0,0,0,1.315-.325L12.8,14.968a5.037,5.037,0,0,1-.795.008A5.059,5.059,0,0,1,7.657,11L5.625,9.426v.268a7.09,7.09,0,0,0,5.937,7.1v1.334H9.375a.625.625,0,0,0-.625.625v.625A.625.625,0,0,0,9.375,20h6.25a.625.625,0,0,0,.625-.625V18.75A.625.625,0,0,0,15.625,18.125Z" transform="translate(0)" fill="#2f353a"/>
</svg>
