<svg xmlns="http://www.w3.org/2000/svg" width="20" height="20" viewBox="0 0 20 20">
  <path id="Icon_awesome-poll" data-name="Icon awesome-poll" d="M17.857,2.25H2.143A2.143,2.143,0,0,0,0,4.393V20.107A2.143,2.143,0,0,0,2.143,22.25H17.857A2.143,2.143,0,0,0,20,20.107V4.393A2.143,2.143,0,0,0,17.857,2.25Zm-10.714,15a.714.714,0,0,1-.714.714H5a.714.714,0,0,1-.714-.714V11.536A.714.714,0,0,1,5,10.821H6.429a.714.714,0,0,1,.714.714Zm4.286,0a.714.714,0,0,1-.714.714H9.286a.714.714,0,0,1-.714-.714v-10a.714.714,0,0,1,.714-.714h1.429a.714.714,0,0,1,.714.714Zm4.286,0a.714.714,0,0,1-.714.714H13.571a.714.714,0,0,1-.714-.714V14.393a.714.714,0,0,1,.714-.714H15a.714.714,0,0,1,.714.714Z" transform="translate(0 -2.25)" fill="#2f353a"/>
</svg>
