<svg xmlns="http://www.w3.org/2000/svg" width="50" height="50" viewBox="0 0 50 50"><circle cx="25" cy="25" r="25" transform="translate(0)" fill="#f86c6b"/><g transform="translate(13.571 13.571)"><path d="M31.929,1.5,25.5,7.929" transform="translate(-9.548 -1.5)" fill="none" stroke="#fff" stroke-linecap="round" stroke-linejoin="round" stroke-width="3"/><path d="M25.5,1.5l6.429,6.429" transform="translate(-9.548 -1.5)" fill="none" stroke="#fff" stroke-linecap="round" stroke-linejoin="round" stroke-width="3"/><path d="M24.477,18.986V22.2a2.143,2.143,0,0,1-2.336,2.143,21.2,21.2,0,0,1-9.246-3.289,20.893,20.893,0,0,1-6.429-6.429A21.2,21.2,0,0,1,3.177,5.336,2.143,2.143,0,0,1,5.309,3H8.523a2.143,2.143,0,0,1,2.143,1.843,13.757,13.757,0,0,0,.75,3.011,2.143,2.143,0,0,1-.482,2.261L9.573,11.475A17.143,17.143,0,0,0,16,17.9l1.361-1.361a2.143,2.143,0,0,1,2.261-.482,13.757,13.757,0,0,0,3.011.75,2.143,2.143,0,0,1,1.843,2.175Z" transform="translate(-3.168 -1.929)" fill="none" stroke="#fff" stroke-linecap="round" stroke-linejoin="round" stroke-width="3"/></g></svg>