<svg xmlns="http://www.w3.org/2000/svg" width="23.999" height="20" viewBox="0 0 23.999 20">
  <path id="Icon_awesome-volume-up" data-name="Icon awesome-volume-up" d="M8.959,3.419,5.252,7.125H1a1,1,0,0,0-1,1v6a1,1,0,0,0,1,1H5.252L8.959,18.83a1,1,0,0,0,1.707-.707v-14A1,1,0,0,0,8.959,3.419ZM18.68,1.29a1.008,1.008,0,1,0-1.107,1.686,9.735,9.735,0,0,1,0,16.3,1.008,1.008,0,1,0,1.107,1.685,11.751,11.751,0,0,0,0-19.669ZM20,11.124a7.693,7.693,0,0,0-3.574-6.51,1,1,0,0,0-1.38.311,1.012,1.012,0,0,0,.309,1.39,5.694,5.694,0,0,1,0,9.618,1.012,1.012,0,0,0-.309,1.39,1,1,0,0,0,1.38.311A7.692,7.692,0,0,0,20,11.124Zm-5.907-3.2a1,1,0,1,0-.965,1.752,1.642,1.642,0,0,1,0,2.9,1,1,0,1,0,.965,1.752,3.643,3.643,0,0,0,0-6.406Z" transform="translate(0 -1.125)" fill="#2f353a"/>
</svg>
