<svg xmlns="http://www.w3.org/2000/svg" width="50" height="50" viewBox="0 0 50 50"><circle cx="25" cy="25" r="25" transform="translate(0)" fill="#ffc107"/><path d="M23.627,17.077l-3.378-2.611a1.119,1.119,0,0,0,.03-.151,1.164,1.164,0,0,0-.321-.809c-.72-.774-2.068-1.938-2.068-5.751a5.887,5.887,0,0,0-4.769-5.784V1.193a1.192,1.192,0,1,0-2.384,0V1.97A5.988,5.988,0,0,0,7.1,4.3L1.7.126a.6.6,0,0,0-.837.1l-.732.942a.6.6,0,0,0,.1.837L22.162,18.96a.6.6,0,0,0,.837-.1l.732-.942A.6.6,0,0,0,23.627,17.077ZM5.861,9.377A6.33,6.33,0,0,1,3.9,13.505a1.165,1.165,0,0,0-.321.809,1.194,1.194,0,0,0,1.2,1.193h9.018Zm6.068,9.709A2.385,2.385,0,0,0,14.313,16.7H9.544A2.385,2.385,0,0,0,11.929,19.086Z" transform="translate(12.857 15.714)" fill="#fff"/></svg>