<svg xmlns="http://www.w3.org/2000/svg" xmlns:xlink="http://www.w3.org/1999/xlink" width="244" height="28" viewBox="0 0 244 28">
  <defs>
    <linearGradient id="linear-gradient" y1="0.501" x2="1" y2="0.501" gradientUnits="objectBoundingBox">
      <stop offset="0.12" stop-color="aqua"/>
      <stop offset="0.2" stop-color="#14ebff"/>
      <stop offset="0.36" stop-color="#48b7ff"/>
      <stop offset="0.59" stop-color="#9b64ff"/>
      <stop offset="0.85" stop-color="#f0f"/>
    </linearGradient>
  </defs>
  <g id="Group_10" data-name="Group 10" transform="translate(-57 -13.507)">
    <path id="Path_1" data-name="Path 1" d="M197.37,563.469,183,549.5v13.97h-5.75V543.14h6.24l14.38,14.027V543.14h5.72v20.329Z" transform="translate(-120.25 -526.112)" fill="#011022"/>
    <path id="Path_2" data-name="Path 2" d="M234,562.479a31.228,31.228,0,0,1-5.23,1.2,39.15,39.15,0,0,1-5.34.364,24.346,24.346,0,0,1-6.2-.718,13.53,13.53,0,0,1-4.58-2.086,9.079,9.079,0,0,1-2.84-3.341,9.9,9.9,0,0,1-1-4.46,9.544,9.544,0,0,1,1-4.288,10.41,10.41,0,0,1,2.79-3.446,13.446,13.446,0,0,1,4.36-2.288,18.747,18.747,0,0,1,5.7-.823,17.821,17.821,0,0,1,5.31.756,11.613,11.613,0,0,1,4.14,2.211,10.184,10.184,0,0,1,2.68,3.618,12.24,12.24,0,0,1,.95,4.958v1.359h-21a4.921,4.921,0,0,0,2.67,3.13,9.995,9.995,0,0,0,2.7.88,20.251,20.251,0,0,0,3.84.306,25.512,25.512,0,0,0,3.1-.182,28.126,28.126,0,0,0,2.83-.488,21.992,21.992,0,0,0,2.38-.68,9.6,9.6,0,0,0,1.71-.737Zm-4-11.017a4.4,4.4,0,0,0-.47-1.56,4.032,4.032,0,0,0-1.25-1.464,6.756,6.756,0,0,0-2.23-1.072,11.681,11.681,0,0,0-3.44-.431,10.816,10.816,0,0,0-3.34.459,8.919,8.919,0,0,0-2.37,1.149,5.78,5.78,0,0,0-1.48,1.464,4.754,4.754,0,0,0-.68,1.455Z" transform="translate(-120.25 -526.112)" fill="#011022"/>
    <path id="Path_3" data-name="Path 3" d="M261.5,543.14l5.44,14.113,5.89-14.113h6l-8.56,20.329h-6.38L258.33,549.8l-5.55,13.674H246.4l-8.57-20.329h6l5.76,13.817,5.57-13.817Z" transform="translate(-124.889 -526.112)" fill="#011022"/>
    <path id="Path_4" data-name="Path 4" d="M306.73,557.855a5.839,5.839,0,0,1-.32,2.063,4.509,4.509,0,0,1-.91,1.5,4.443,4.443,0,0,1-1.39,1.022,8.748,8.748,0,0,1-1.8.621,13.956,13.956,0,0,1-2.1.315c-.74.067-1.51.1-2.31.1H282.45V543.14h15.17a16.947,16.947,0,0,1,1.84.067,11.484,11.484,0,0,1,1.76.277,7.484,7.484,0,0,1,1.56.554,4.213,4.213,0,0,1,1.25.955,4.085,4.085,0,0,1,.84,1.385,5.582,5.582,0,0,1,.3,1.91,4.626,4.626,0,0,1-1,3.142,5.405,5.405,0,0,1-3.23,1.547,11.532,11.532,0,0,1,2.66.449,5.367,5.367,0,0,1,1.81.955,3.608,3.608,0,0,1,1,1.47,5.641,5.641,0,0,1,.32,2.005Zm-7.17-8.7a2.169,2.169,0,0,0-.12-.726,1.514,1.514,0,0,0-.44-.649,2.693,2.693,0,0,0-.89-.43,5.271,5.271,0,0,0-1.42-.162H288.2v3.82h8.48a5.817,5.817,0,0,0,1.42-.143,2.694,2.694,0,0,0,.89-.4,1.464,1.464,0,0,0,.45-.6A2.226,2.226,0,0,0,299.56,549.156Zm1.33,8.069a2.122,2.122,0,0,0-.25-1.117,1.549,1.549,0,0,0-.77-.649,4.413,4.413,0,0,0-1.36-.306c-.56-.048-1.23-.076-2-.076H288.2v4.307h8.31a15.746,15.746,0,0,0,2-.076,4.42,4.42,0,0,0,1.36-.306,1.667,1.667,0,0,0,.77-.659,2.169,2.169,0,0,0,.25-1.117Z" transform="translate(-127.754 -526.112)" fill="#011022"/>
    <g id="Group_9" data-name="Group 9" transform="translate(180.807 13.507)">
      <path id="Path_7" data-name="Path 7" d="M340.57,558.27h0a2.11,2.11,0,0,1-2.23-1.94v-3.61a2.1,2.1,0,0,1,2.23-1.94h0a2.11,2.11,0,0,1,2.24,1.94v3.61A2.12,2.12,0,0,1,340.57,558.27Z" transform="translate(-311.731 -540.119)" fill="#011022"/>
      <path id="Path_8" data-name="Path 8" d="M312,558.36h0a2.13,2.13,0,0,1-2.26-2v-3.65a2.13,2.13,0,0,1,2.26-2h0a2.13,2.13,0,0,1,2.26,2v3.65a2.13,2.13,0,0,1-2.26,2Z" transform="translate(-309.74 -540.119)" fill="#011022"/>
      <path id="Path_9" data-name="Path 9" d="M341.23,554.48h-1.16A16,16,0,0,0,339,548.3a11.53,11.53,0,0,0-2.91-4.25,12,12,0,0,0-4.37-2.47,18.252,18.252,0,0,0-5.53-.81,19.417,19.417,0,0,0-3.79.36,14.47,14.47,0,0,0-3.35,1.1,11.691,11.691,0,0,0-2.8,1.84,10.71,10.71,0,0,0-2.14,2.61,13.587,13.587,0,0,0-1.38,3.46,17.6,17.6,0,0,0-.5,4.34h-1.17a18.94,18.94,0,0,1,.53-4.63,15.08,15.08,0,0,1,1.51-3.76,11.79,11.79,0,0,1,2.37-2.9,13.887,13.887,0,0,1,3.08-2,15.531,15.531,0,0,1,3.62-1.19,21,21,0,0,1,4-.38,19.261,19.261,0,0,1,5.88.87,13,13,0,0,1,4.81,2.72,12.741,12.741,0,0,1,3.2,4.66,17.35,17.35,0,0,1,1.17,6.61Z" transform="translate(-310.836 -539.619)" fill="#011022"/>
      <path id="Path_10" data-name="Path 10" d="M326.43,568v-1.17a20.13,20.13,0,0,0,5.55-.74,12.26,12.26,0,0,0,4.39-2.25,10.44,10.44,0,0,0,2.9-3.83,13.29,13.29,0,0,0,1.07-5.56h1.17a14.641,14.641,0,0,1-1.17,6.05,11.671,11.671,0,0,1-3.23,4.25,13.451,13.451,0,0,1-4.81,2.46,21.248,21.248,0,0,1-5.87.79Z" transform="translate(-311.337 -540.58)" fill="#011022"/>
      <rect id="Rectangle_1" data-name="Rectangle 1" width="4.69" height="2.27" rx="0.65" transform="translate(13.064 25.73)" fill="#011022"/>
    </g>
    <path id="Path_11" data-name="Path 11" d="M353.1,543.14v11.473a10.073,10.073,0,0,0,.2,2.065,3.623,3.623,0,0,0,.7,1.625,3.524,3.524,0,0,0,1.52,1.023,7.5,7.5,0,0,0,2.54.363,10.512,10.512,0,0,0,2.48-.316,17.278,17.278,0,0,0,2.56-.822,20.217,20.217,0,0,0,2.43-1.2,17.859,17.859,0,0,0,2.06-1.406V543.14h5.74V563.5h-5.74V560.7c-.72.4-1.49.794-2.31,1.2a21.726,21.726,0,0,1-2.6,1.08,20.326,20.326,0,0,1-2.93.784,17.071,17.071,0,0,1-3.27.306,13.556,13.556,0,0,1-3.85-.5,8.61,8.61,0,0,1-2.89-1.405,6.206,6.206,0,0,1-1.8-2.209,6.517,6.517,0,0,1-.63-2.868V543.14Z" transform="translate(-132.468 -526.112)" fill="#011022"/>
    <path id="Path_12" data-name="Path 12" d="M400.31,563.469V552.064a9.463,9.463,0,0,0-.2-2.075,3.377,3.377,0,0,0-2.28-2.6,7.3,7.3,0,0,0-2.54-.363,10.9,10.9,0,0,0-2.47.3,19.344,19.344,0,0,0-2.56.813,18.732,18.732,0,0,0-2.43,1.166,16.116,16.116,0,0,0-2.05,1.4v12.772H380V543.116h5.75V545.9q1.08-.593,2.31-1.176a23.377,23.377,0,0,1,2.6-1.061,22.035,22.035,0,0,1,2.93-.774,17.874,17.874,0,0,1,3.27-.3,13.956,13.956,0,0,1,3.85.5,8.522,8.522,0,0,1,2.87,1.415,6.091,6.091,0,0,1,1.81,2.2,6.571,6.571,0,0,1,.63,2.868v13.872Z" transform="translate(-137.693 -526.112)" fill="#011022"/>
    <path id="Path_13" data-name="Path 13" d="M438.69,553.291a12.205,12.205,0,0,1-.45,3.466,8.554,8.554,0,0,1-1.26,2.645,7.831,7.831,0,0,1-2,1.91,10.169,10.169,0,0,1-2.53,1.26,16.019,16.019,0,0,1-3,.688,25.454,25.454,0,0,1-3.36.22H412.62V543.14H426.1a25.535,25.535,0,0,1,3.36.21,16,16,0,0,1,3,.687,10.416,10.416,0,0,1,2.55,1.251,7.606,7.606,0,0,1,2,1.91,8.553,8.553,0,0,1,1.26,2.645,12.016,12.016,0,0,1,.42,3.447Zm-5.79,0a7.269,7.269,0,0,0-.4-2.55,3.951,3.951,0,0,0-1.27-1.786,5.9,5.9,0,0,0-2.28-1.05,14.768,14.768,0,0,0-3.44-.344h-7.15V559.02h7.15a14.774,14.774,0,0,0,3.44-.344,5.65,5.65,0,0,0,2.28-1.07,3.98,3.98,0,0,0,1.27-1.8A7.215,7.215,0,0,0,432.9,553.291Z" transform="translate(-137.693 -526.112)" fill="#011022"/>
    <path id="Path_14" data-name="Path 14" d="M326.48,564.2a11.19,11.19,0,0,1-8.55-4.18,1.06,1.06,0,0,1-.11-1.4,1,1,0,0,1,1.38-.1c4,4.72,10.21,5.33,14.48.08a.93.93,0,0,1,1.35-.08,1,1,0,0,1,0,1.5A11.19,11.19,0,0,1,326.48,564.2Z" transform="translate(-130.002 -526.89)" fill="url(#linear-gradient)"/>
  </g>
</svg>
